<svg id="Capa_1" data-name="Capa 1" xmlns="http://www.w3.org/2000/svg" xmlns:xlink="http://www.w3.org/1999/xlink" viewBox="0 0 1400 285"><defs><style>.cls-1{fill:none;}.cls-2{fill:#424242;}.cls-3{fill:#3375ff;}.cls-4{clip-path:url(#clip-path);}.cls-5{opacity:0.05;}.cls-6{clip-path:url(#clip-path-2);}</style><clipPath id="clip-path"><rect class="cls-1" width="1400" height="285"/></clipPath><clipPath id="clip-path-2"><rect class="cls-1" x="874.56" width="525.44" height="285"/></clipPath></defs><path class="cls-2" d="M207.89,81.09l3.2,0q13.16-.26,14.42-.26,18.63,0,27.86,7.93t9.23,23.15A32,32,0,0,1,258.08,129a29.64,29.64,0,0,1-13,11.35q-8.52,4-20.32,4-1.31,0-6.27-.13c-3.3-.08-5.7-.13-7.19-.13q-10.51,0-15.65.26v-1.79a12.69,12.69,0,0,0,4.19-.7,3.14,3.14,0,0,0,1.75-2.11,18.6,18.6,0,0,0,.46-4.91V90.3a18,18,0,0,0-.48-4.91,3.2,3.2,0,0,0-1.77-2.1,12.57,12.57,0,0,0-4.15-.71V80.79Q202.15,81.09,207.89,81.09Zm12.84,58.77a3.53,3.53,0,0,0,2,2.24,11.11,11.11,0,0,0,4.28.63q8.89,0,12.84-7.67t3.95-22.84q0-15.21-4.08-22.51t-12.8-7.3a10.78,10.78,0,0,0-4.21.63,3.57,3.57,0,0,0-1.93,2.26,16.72,16.72,0,0,0-.52,4.83V135A16.66,16.66,0,0,0,220.73,139.86Z"/><path class="cls-2" d="M285.48,119.85q0,8.64,3,12.3a9.17,9.17,0,0,0,7.34,3.66q6.53,0,10.87-6l1.54.57a27.3,27.3,0,0,1-3.69,7.43,19,19,0,0,1-6.22,5.63,17.49,17.49,0,0,1-8.86,2.2q-9.42,0-15.1-5.86t-5.68-18.65q0-8.33,3-13.85a19,19,0,0,1,8.18-8.16,26.15,26.15,0,0,1,11.95-2.63q17,0,17,20.12H285.57C285.51,117.31,285.48,118.39,285.48,119.85Zm9.14-16.68c-.74-3.06-1.9-4.58-3.48-4.58s-2.95,1.28-3.95,3.85-1.63,6.73-1.93,12.45h10.39A47.89,47.89,0,0,0,294.62,103.17Z"/><path class="cls-2" d="M318.87,135.54a14.74,14.74,0,0,0,4,5.75,8.64,8.64,0,0,0,5.68,2.06,5.6,5.6,0,0,0,3.75-1.25,4.55,4.55,0,0,0,1.46-3.66,9.62,9.62,0,0,0-1-4.5,14.81,14.81,0,0,0-2.52-3.55q-1.49-1.56-4.77-4.54c-2.55-2.33-4.47-4.19-5.77-5.56a20.67,20.67,0,0,1-3.35-4.8,13.09,13.09,0,0,1-1.41-6.08,10.63,10.63,0,0,1,2.33-6.79,15.07,15.07,0,0,1,6.18-4.54,21.74,21.74,0,0,1,8.37-1.6,27,27,0,0,1,6.6.77,19.92,19.92,0,0,1,4.71,1.69,3.4,3.4,0,0,0,1.62.52c1.2,0,1.95-1,2.24-2.89h1.8q-.36,4.7-.35,16.18h-1.8a23.35,23.35,0,0,0-3.35-10,8.63,8.63,0,0,0-7.7-4.1A5.49,5.49,0,0,0,331.8,100a4.65,4.65,0,0,0-1.51,3.64,7.87,7.87,0,0,0,2,5.33,34.63,34.63,0,0,0,4.76,4.43c1.83,1.41,3.16,2.47,4,3.17q3.33,2.78,5.31,4.78a16.68,16.68,0,0,1,3.17,4.58,13.42,13.42,0,0,1,1.21,5.81,11.51,11.51,0,0,1-2.43,7.17,15.86,15.86,0,0,1-6.58,4.93,23.07,23.07,0,0,1-9.1,1.76,17.16,17.16,0,0,1-9.25-2.28,10.76,10.76,0,0,0-4.51-1.49c-1.14,0-2,1-2.5,3.11h-1.8q.36-5.13.35-17.93h1.8A31.11,31.11,0,0,0,318.87,135.54Z"/><path class="cls-2" d="M392.91,137.78a19.16,19.16,0,0,1-6.24,5.65,17.51,17.51,0,0,1-8.86,2.2q-9.82,0-15.74-5.86t-5.92-18.65q0-8.33,3-13.85a19,19,0,0,1,8.18-8.16,26.12,26.12,0,0,1,11.95-2.63,28.16,28.16,0,0,1,6.77.77,18.43,18.43,0,0,1,5.06,2,10.81,10.81,0,0,1,4,3.88,10.51,10.51,0,0,1,1.44,5.46,9,9,0,0,1-1.11,4.45,8.22,8.22,0,0,1-3.09,3.13,8.73,8.73,0,0,1-4.43,1.14,7.62,7.62,0,0,1-8.24-8.11,8.37,8.37,0,0,1,2.12-5.68,10.74,10.74,0,0,1,5.24-3.31,5.94,5.94,0,0,0-3.59-1q-5.79,0-8.11,6.16a41.29,41.29,0,0,0-2.33,14.58q0,8.64,3.27,12.3a10.28,10.28,0,0,0,8,3.66q6.52,0,10.87-6l1.53.57A26.67,26.67,0,0,1,392.91,137.78Z"/><path class="cls-2" d="M423.07,100.54c-.95-1.51-2.69-2.26-5.24-2.26a7.63,7.63,0,0,0-2.43.44,10.42,10.42,0,0,0-2.3,1.09q6,2.23,6,8.11a7,7,0,0,1-1.08,3.82,7.56,7.56,0,0,1-3,2.72,9.79,9.79,0,0,1-4.51,1,7.16,7.16,0,0,1-3.86-1,7.06,7.06,0,0,1-2.59-2.82,8.68,8.68,0,0,1-.92-4,8,8,0,0,1,1.52-4.8,11.71,11.71,0,0,1,4.05-3.44q5.65-2.89,14.38-2.9a32.76,32.76,0,0,1,8.68,1,12.66,12.66,0,0,1,6,3.53,9.39,9.39,0,0,1,2.35,4.67,41.12,41.12,0,0,1,.59,7.91v24a9.85,9.85,0,0,0,.31,3,1.08,1.08,0,0,0,1.05.85,2.58,2.58,0,0,0,1.29-.33c.4-.22.9-.55,1.52-1l.87,1.53a12.81,12.81,0,0,1-4.91,2.52A25.91,25.91,0,0,1,434,145c-3.16,0-5.47-.64-6.95-1.91a6.45,6.45,0,0,1-2.3-4.89,13.57,13.57,0,0,1-5.3,5,15.75,15.75,0,0,1-7.54,1.84q-5.31,0-8.31-2.81a9.77,9.77,0,0,1-3-7.49,11.07,11.07,0,0,1,2.76-7.68q2.76-3.06,8.63-5,4.78-1.71,7.08-2.7a14.21,14.21,0,0,0,3.86-2.37,4.23,4.23,0,0,0,1.56-3.26v-8A9.36,9.36,0,0,0,423.07,100.54ZM421,121.29a13.66,13.66,0,0,0-4.38,10.13q0,6.36,4.56,6.36a4.54,4.54,0,0,0,3.33-1.49V117.35A27.22,27.22,0,0,1,421,121.29Z"/><path class="cls-2" d="M481,96.48c2.93,0,5,.9,6.32,2.7a10.71,10.71,0,0,1,1.92,6.38A9,9,0,0,1,487,112a7.87,7.87,0,0,1-6,2.39,9.05,9.05,0,0,1-6-1.73,5.86,5.86,0,0,1-2.06-4.72,9.5,9.5,0,0,1,4.6-8.37,6.7,6.7,0,0,0-2.89.61,8.71,8.71,0,0,0-3.79,3.18,8.41,8.41,0,0,0-1.51,4.85V135.1a10.32,10.32,0,0,0,.78,4.45,4.5,4.5,0,0,0,2.46,2.26,12.4,12.4,0,0,0,4.47.66v1.88q-11-.34-14.51-.35t-14.38.35v-1.88a6.5,6.5,0,0,0,3-.57,3.32,3.32,0,0,0,1.58-2,12.56,12.56,0,0,0,.48-3.9v-28.5q0-4.17-1.14-6a4.21,4.21,0,0,0-3.9-1.86V97.75c1.9.18,3.76.27,5.57.27a83,83,0,0,0,15.61-1.23v6.44Q472.85,96.48,481,96.48Z"/><path class="cls-2" d="M535.28,134.25q3.65,2.48,3.64,8a15.9,15.9,0,0,1-3,9.12,21.18,21.18,0,0,1-9,7.08,34.94,34.94,0,0,1-14.62,2.74,58.62,58.62,0,0,1-12.47-1.07q-4.71-1.08-6.66-2.74a4.8,4.8,0,0,1-2-3.64,3.23,3.23,0,0,1,1.78-3.27,24.53,24.53,0,0,1,6.58-1.33c3.2-.35,5.34-1.19,6.42-2.5H503.1a15.66,15.66,0,0,1-4.71-.77,9.17,9.17,0,0,1-4.23-2.85,8.45,8.45,0,0,1-1.8-5.72,11.47,11.47,0,0,1,1.12-5.22,12.43,12.43,0,0,1,3.62-4.18,36.52,36.52,0,0,1,6.88-4,17.11,17.11,0,0,1-8.05-4.85,13.2,13.2,0,0,1-.17-16.22,16,16,0,0,1,7.43-4.8,34.74,34.74,0,0,1,11-1.58,40,40,0,0,1,5.39.35c-.06-.61-.09-1.22-.09-1.84A13.7,13.7,0,0,1,522,86.38q2.52-3.27,7.61-3.27a9.22,9.22,0,0,1,5.55,1.6,5.16,5.16,0,0,1,2.21,4.41,4.91,4.91,0,0,1-1,3,6.64,6.64,0,0,1-2.65,2.1A8.67,8.67,0,0,1,530,95,9.27,9.27,0,0,1,525,93.83,8.77,8.77,0,0,1,522,90.3a14.82,14.82,0,0,0-.61,4.69,16.71,16.71,0,0,0,.13,2.11,19.59,19.59,0,0,1,10.1,4.69,13.12,13.12,0,0,1,1,17.07,16,16,0,0,1-7.43,4.8,34.74,34.74,0,0,1-11,1.58,37.78,37.78,0,0,1-8.51-.88,12.47,12.47,0,0,0-2.69,2.2,3.41,3.41,0,0,0-.81,2.27c0,2,1.06,2.94,3.2,2.94h20.38A16.7,16.7,0,0,1,535.28,134.25ZM507,149.68a18.35,18.35,0,0,0-.26,2.83,6.78,6.78,0,0,0,2.06,5.3q2.06,1.89,6,1.89a14,14,0,0,0,6.09-1.27,9.81,9.81,0,0,0,4.1-3.58,9.57,9.57,0,0,0,1.47-5.28,2.57,2.57,0,0,0-1-2.17,5.31,5.31,0,0,0-3.17-.72H507.84A10.87,10.87,0,0,0,507,149.68ZM510.75,101q-1.15,2.94-1.16,9.82t1.16,9.84q1.17,2.92,3.4,2.92t3.44-2.92q1.15-2.91,1.16-9.84T517.59,101c-.77-1.94-1.92-2.92-3.44-2.92S511.53,99.08,510.75,101Z"/><path class="cls-2" d="M564.19,100.54c-1-1.51-2.69-2.26-5.24-2.26a7.63,7.63,0,0,0-2.43.44,10.42,10.42,0,0,0-2.3,1.09q6,2.23,6,8.11a7,7,0,0,1-1.07,3.82,7.63,7.63,0,0,1-3,2.72,9.79,9.79,0,0,1-4.51,1,7.16,7.16,0,0,1-3.86-1,7.06,7.06,0,0,1-2.59-2.82,8.68,8.68,0,0,1-.92-4,8,8,0,0,1,1.52-4.8,11.53,11.53,0,0,1,4-3.44q5.65-2.89,14.38-2.9a32.76,32.76,0,0,1,8.68,1,12.71,12.71,0,0,1,6,3.53,9.39,9.39,0,0,1,2.35,4.67,41.12,41.12,0,0,1,.59,7.91v24a9.85,9.85,0,0,0,.31,3,1.08,1.08,0,0,0,1.05.85,2.58,2.58,0,0,0,1.29-.33,17.23,17.23,0,0,0,1.51-1l.88,1.53a12.81,12.81,0,0,1-4.91,2.52,25.91,25.91,0,0,1-6.75.77c-3.16,0-5.47-.64-7-1.91a6.41,6.41,0,0,1-2.3-4.89,13.6,13.6,0,0,1-5.31,5A15.72,15.72,0,0,1,553,145q-5.29,0-8.3-2.81a9.74,9.74,0,0,1-3-7.49,11,11,0,0,1,2.77-7.68q2.76-3.06,8.63-5,4.78-1.71,7.08-2.7a14.21,14.21,0,0,0,3.86-2.37,4.23,4.23,0,0,0,1.56-3.26v-8A9.36,9.36,0,0,0,564.19,100.54Zm-2.08,20.75a13.66,13.66,0,0,0-4.38,10.13c0,4.24,1.51,6.36,4.55,6.36a4.55,4.55,0,0,0,3.34-1.49V117.35A27.22,27.22,0,0,1,562.11,121.29Z"/><path class="cls-2" d="M622.08,96.48c2.92,0,5,.9,6.31,2.7a10.65,10.65,0,0,1,1.93,6.38,9,9,0,0,1-2.25,6.42,7.89,7.89,0,0,1-6,2.39,9.05,9.05,0,0,1-6-1.73,5.86,5.86,0,0,1-2.06-4.72,9.5,9.5,0,0,1,4.6-8.37,6.7,6.7,0,0,0-2.89.61,8.65,8.65,0,0,0-3.79,3.18,8.42,8.42,0,0,0-1.52,4.85V135.1a10.31,10.31,0,0,0,.79,4.45,4.5,4.5,0,0,0,2.46,2.26,12.4,12.4,0,0,0,4.47.66v1.88q-11.05-.34-14.51-.35t-14.38.35v-1.88a6.5,6.5,0,0,0,3-.57,3.32,3.32,0,0,0,1.58-2,12.56,12.56,0,0,0,.48-3.9v-28.5q0-4.17-1.14-6a4.21,4.21,0,0,0-3.9-1.86V97.75c1.9.18,3.75.27,5.57.27a82.92,82.92,0,0,0,15.6-1.23v6.44Q614,96.48,622.08,96.48Z"/><path class="cls-2" d="M705.75,140.3c-.34-.83-.83-1.25-1.47-1.25a3.74,3.74,0,0,0-1.84.74,48.61,48.61,0,0,1-4.93,3.1,24.33,24.33,0,0,1-5.15,2,25.63,25.63,0,0,1-6.54.77,39,39,0,0,1-17.8-3.86,27.81,27.81,0,0,1-11.83-11.2A34.53,34.53,0,0,1,652,113.1a35,35,0,0,1,4.32-17.54,30.26,30.26,0,0,1,12-11.84,36.15,36.15,0,0,1,17.6-4.2,24.41,24.41,0,0,1,9.14,1.53,31.6,31.6,0,0,1,7.39,4.3,3.08,3.08,0,0,0,1.75.79c1.23,0,2-1.79,2.28-5.35h2.06q-.35,6.36-.35,22.44h-2.06a53.46,53.46,0,0,0-1.25-8,19,19,0,0,0-2.48-5.78,16.48,16.48,0,0,0-12.88-7.13,12.52,12.52,0,0,0-10.2,4.54,26.09,26.09,0,0,0-5.21,11.33,72.79,72.79,0,0,0,0,29.11,26.09,26.09,0,0,0,5.21,11.33,12.52,12.52,0,0,0,10.2,4.54,15.21,15.21,0,0,0,8.33-2.67,14.19,14.19,0,0,0,4.55-4.43,19.64,19.64,0,0,0,2.48-6.16,63.65,63.65,0,0,0,1.25-8.88h2.06q0,16.71.35,23.32h-2.06A14.86,14.86,0,0,0,705.75,140.3Z"/><path class="cls-2" d="M769.07,81.05q4.26,0,6.93-.26v1.79a14,14,0,0,0-4.78,4.21A29.79,29.79,0,0,0,767,95.17l-17.49,49.18c-1.93-.11-3.52-.17-4.78-.17s-2.77.06-4.64.17l-23.55-56A12.76,12.76,0,0,0,714,84.05a4.46,4.46,0,0,0-2.72-1.47V80.79q6.53.25,16.35.26,10.21,0,15.08-.26v1.79a14.51,14.51,0,0,0-4.82.79,2.49,2.49,0,0,0-1.49,2.5,12.21,12.21,0,0,0,1.1,4.26L753,128.4l8.68-24.47q2.94-8.37,2.94-13.32,0-7.77-7.33-8V80.79Q764,81,769.07,81.05Z"/><path class="cls-3" d="M206.14,201.75a6.84,6.84,0,0,0,.37,2.64,2,2,0,0,0,1.35,1.1,12.06,12.06,0,0,0,3.08.28v1q-5.81-.13-8.88-.13-.72,0-7.72.13v-.87a6.16,6.16,0,0,0,2-.33,1.52,1.52,0,0,0,.84-1,8.91,8.91,0,0,0,.22-2.36V180.81a8.87,8.87,0,0,0-.23-2.36,1.58,1.58,0,0,0-.85-1,6.08,6.08,0,0,0-2-.33v-.86c1.64.08,4.11.12,7.43.12,1.17,0,2.49,0,3.93,0s2.44,0,3,0a21,21,0,0,1,7.18,1.06,9.18,9.18,0,0,1,4.36,3,7.2,7.2,0,0,1,1.44,4.46,8.88,8.88,0,0,1-1.28,4.55A9.49,9.49,0,0,1,216,193a19.7,19.7,0,0,1-8.25,1.46h-1.6Zm5.35-10.43a13.66,13.66,0,0,0,1.13-6.07,15,15,0,0,0-1-6.16,3.3,3.3,0,0,0-3.19-2,2.94,2.94,0,0,0-1.49.3,1.65,1.65,0,0,0-.67,1.09,11,11,0,0,0-.18,2.31v12.75h1.18A4.24,4.24,0,0,0,211.49,191.32Z"/><path class="cls-3" d="M229.12,176.39l1.54,0,6.92-.12q8.94,0,13.37,3.8t4.43,11.11a15.33,15.33,0,0,1-2.17,8.22,14.19,14.19,0,0,1-6.26,5.45,22.61,22.61,0,0,1-9.75,1.93c-.42,0-1.42,0-3-.07s-2.73-.06-3.45-.06q-5.06,0-7.51.13v-.87a6.16,6.16,0,0,0,2-.33,1.52,1.52,0,0,0,.84-1,8.91,8.91,0,0,0,.22-2.36V180.81a8.87,8.87,0,0,0-.23-2.36,1.55,1.55,0,0,0-.85-1,6.08,6.08,0,0,0-2-.33v-.86Q226.37,176.39,229.12,176.39Zm6.17,28.21a1.67,1.67,0,0,0,.93,1.07,5.15,5.15,0,0,0,2.05.31,6.44,6.44,0,0,0,6.17-3.68q1.89-3.69,1.89-11t-2-10.8a6.56,6.56,0,0,0-6.15-3.51,5.17,5.17,0,0,0-2,.31,1.65,1.65,0,0,0-.92,1.08,7.89,7.89,0,0,0-.26,2.32v21.54A7.88,7.88,0,0,0,235.29,204.6Z"/><path class="cls-3" d="M272.89,176.37q6.33,0,9-.12-.3,4-.3,7.23a27.85,27.85,0,0,0,.13,3.12h-1q-1-5-3.18-7.18a6.49,6.49,0,0,0-4.75-2.19h-.57a5.71,5.71,0,0,0-1.71.19,1.17,1.17,0,0,0-.72.75,5.5,5.5,0,0,0-.2,1.78v11h.44a4.69,4.69,0,0,0,2.77-.86,7.27,7.27,0,0,0,2-2.17,8.08,8.08,0,0,0,1.07-2.65h1c-.11,1.69-.17,3.08-.17,4.19l0,1.94q0,1.85.28,6.12h-1a8,8,0,0,0-1.09-2.91,6.06,6.06,0,0,0-2.07-2,5.54,5.54,0,0,0-2.84-.74h-.44v9.91a6.84,6.84,0,0,0,.37,2.64,1.93,1.93,0,0,0,1.34,1.1,12.06,12.06,0,0,0,3.08.28v1q-5.81-.13-8.88-.13c-.47,0-3,0-7.72.13v-.87a6.06,6.06,0,0,0,2-.33,1.47,1.47,0,0,0,.84-1,8.91,8.91,0,0,0,.22-2.36V180.81a8.47,8.47,0,0,0-.23-2.36,1.55,1.55,0,0,0-.85-1,6,6,0,0,0-2-.33v-.86Q262.81,176.37,272.89,176.37Z"/><path class="cls-2" d="M162,208.5H62a1.5,1.5,0,0,1-1.5-1.5V78A1.5,1.5,0,0,1,62,76.5H162a1.5,1.5,0,0,1,1.5,1.5V207A1.5,1.5,0,0,1,162,208.5Zm-98.5-3h97V79.5h-97Z"/><rect class="cls-3" x="75" y="91" width="24" height="24"/><rect class="cls-2" x="105" y="95" width="40" height="2"/><rect class="cls-2" x="105" y="105" width="26" height="2"/><rect class="cls-2" x="75" y="139" width="74" height="2"/><rect class="cls-2" x="75" y="159" width="74" height="2"/><rect class="cls-2" x="75" y="179" width="74" height="2"/><g class="cls-4"><g class="cls-5"><path class="cls-2" d="M-51.44,306.07q8.2,19.44,21.29,30.32a45.48,45.48,0,0,0,30,10.88q12,0,19.79-6.6t7.75-19.32a50.92,50.92,0,0,0-5.44-23.73,80.18,80.18,0,0,0-13.3-18.74q-7.87-8.22-25.23-24Q-36.75,236.41-47,225.53a108.43,108.43,0,0,1-17.7-25.34,69.27,69.27,0,0,1-7.41-32.06,56.18,56.18,0,0,1,12.27-35.87q12.26-15.51,32.63-23.95A114.09,114.09,0,0,1,17,99.86a142.46,142.46,0,0,1,34.83,4q16.08,4.05,24.88,8.91,4.86,2.78,8.56,2.77,9.5,0,11.81-15.27h9.49q-1.86,24.77-1.86,85.4H95.17q-3.7-31-17.7-52.65T36.85,111.43q-12,0-20,7.17t-8,19.21a41.36,41.36,0,0,0,10.64,28.12A179.84,179.84,0,0,0,44.6,189.31q14.48,11.24,21.18,16.78a374.26,374.26,0,0,1,28,25.23,88,88,0,0,1,16.78,24.18q6.36,13.54,6.36,30.67A60.69,60.69,0,0,1,104.09,324q-12.86,16.78-34.72,26t-48,9.25q-29.62,0-48.83-12-15.27-7.86-23.84-7.87-9,0-13.19,16.43H-74q1.85-27.07,1.85-94.66h9.49Q-59.67,286.64-51.44,306.07Z"/><path class="cls-2" d="M339.46,317.88a101.32,101.32,0,0,1-33,29.85q-20.13,11.58-46.75,11.57-51.84,0-83.09-30.89T145.4,229.93q0-44,15.74-73.14t43.16-43q27.42-13.87,63.07-13.88a148.36,148.36,0,0,1,35.76,4q16.31,4.05,26.73,10.3a57.07,57.07,0,0,1,20.83,20.48,55.31,55.31,0,0,1,7.64,28.81A47.11,47.11,0,0,1,352.42,187a43,43,0,0,1-16.31,16.55,45.82,45.82,0,0,1-23.38,6q-20.37,0-31.94-11.8t-11.57-31a44.13,44.13,0,0,1,11.23-30A56.26,56.26,0,0,1,308.1,119.3q-7.64-5.56-19-5.56-30.54,0-42.81,32.52t-12.27,77q0,45.59,17.24,64.92t42,19.32q34.48,0,57.4-31.71l8.1,3A139.93,139.93,0,0,1,339.46,317.88Z"/><path class="cls-2" d="M498.69,121.26q-7.51-11.91-27.65-11.91a40.14,40.14,0,0,0-12.85,2.31A53.39,53.39,0,0,0,446,117.45q31.71,11.79,31.71,42.81a37.09,37.09,0,0,1-5.67,20.14A39.91,39.91,0,0,1,456,194.75a51.63,51.63,0,0,1-23.84,5.32,37.87,37.87,0,0,1-20.36-5.44,36.91,36.91,0,0,1-13.66-14.93,45.48,45.48,0,0,1-4.86-21.06,42,42,0,0,1,8-25.34,62.08,62.08,0,0,1,21.41-18.17q29.85-15.27,75.91-15.27,27.07,0,45.82,5.2a67.42,67.42,0,0,1,31.48,18.63q9.25,9.74,12.38,24.65t3.13,41.78V317q0,11.34,1.62,15.85t5.55,4.52a13.8,13.8,0,0,0,6.83-1.74,88.43,88.43,0,0,0,8-5.21l4.63,8.1a67.7,67.7,0,0,1-25.92,13.31q-14.8,4.05-35.64,4.05-25,0-36.68-10.07A33.86,33.86,0,0,1,507.61,320a71.61,71.61,0,0,1-28,26.15,82.62,82.62,0,0,1-39.81,9.72q-28,0-43.86-14.81t-15.85-39.58q0-24.3,14.58-40.5t45.6-26.38q25.22-9,37.37-14.24A74.91,74.91,0,0,0,498,207.83q8.22-7.31,8.22-17.25V148.23A49.45,49.45,0,0,0,498.69,121.26Zm-11,109.59q-23.15,22.46-23.14,53.47,0,33.56,24.07,33.56,9.94,0,17.59-7.87V210Q502.74,215.81,487.7,230.85Z"/><path class="cls-2" d="M804.32,99.86q23.13,0,33.32,14.23t10.19,33.68q0,21.28-11.92,33.9t-31.59,12.62q-20.61,0-31.48-9.15T762,160.26q0-28.23,24.3-44.2A34.67,34.67,0,0,0,771,119.3a45.43,45.43,0,0,0-20,16.78,44.33,44.33,0,0,0-8,25.57V303.76q0,15,4.17,23.49a23.67,23.67,0,0,0,13,11.92q8.79,3.46,23.61,3.47v9.95q-58.34-1.84-76.61-1.85-17.6,0-75.91,1.85v-9.95q9.94,0,15.73-3t8.34-10.41q2.54-7.41,2.54-20.6V158.18q0-22-6-31.82t-20.6-9.84v-10q15,1.4,29.39,1.39,49.29,0,82.39-6.48v34Q761.51,99.86,804.32,99.86Z"/><path class="cls-2" d="M1091.07,299.24q19.22,13.08,19.21,42.47,0,25.23-15.73,48.14t-47.34,37.38Q1015.62,441.69,970,441.7q-41,0-65.85-5.67T869,421.56q-10.29-8.79-10.3-19.21,0-13,9.38-17.24t34.71-7.06q25.35-2.78,33.91-13.19H921.19a82.62,82.62,0,0,1-24.88-4.05A48.46,48.46,0,0,1,874,345.76q-9.5-11-9.49-30.2,0-15.74,5.9-27.54t19.1-22.1q13.18-10.31,36.33-21.18-27.32-8.33-42.47-25.58t-15.16-43.39q0-25.23,14.24-42.24t39.23-25.34q25-8.34,57.86-8.33a207.58,207.58,0,0,1,28.46,1.85q-.47-4.86-.46-9.72,0-28.23,13.31-45.48T1061,29.27q17.58,0,29.27,8.44T1102,61a26.08,26.08,0,0,1-5.21,15.86,35.35,35.35,0,0,1-14,11.11,46.47,46.47,0,0,1-19.67,4q-16.2,0-26-6.14t-16.32-18.63q-3.24,9.5-3.24,24.77a90.19,90.19,0,0,0,.7,11.11q34,6.48,53.35,24.76t19.32,47.91q0,25.23-14.23,42.24t-39.23,25.34q-25,8.34-57.86,8.33a200.52,200.52,0,0,1-44.9-4.63q-10,6.49-14.24,11.58a18.11,18.11,0,0,0-4.28,12q0,15.51,16.9,15.51h107.62Q1071.87,286.17,1091.07,299.24ZM941.56,380.71a99.45,99.45,0,0,0-1.39,14.93q0,18.06,10.88,28t31.94,10q18.28,0,32.17-6.71A51.73,51.73,0,0,0,1036.8,408a50.72,50.72,0,0,0,7.75-27.89q0-7.63-5-11.45t-16.78-3.82H946.19A58.9,58.9,0,0,0,941.56,380.71Zm20-256.78q-6.14,15.51-6.13,51.84,0,36.57,6.13,52t17.94,15.39q12,0,18.17-15.39t6.13-52q0-36.57-6.13-52t-18.17-15.39Q967.71,108.42,961.58,123.93Z"/><path class="cls-2" d="M1243.71,121.26q-7.53-11.91-27.66-11.91a40.13,40.13,0,0,0-12.84,2.31,53.19,53.19,0,0,0-12.15,5.79q31.7,11.79,31.7,42.81a37.17,37.17,0,0,1-5.66,20.14A40,40,0,0,1,1201,194.75a51.63,51.63,0,0,1-23.84,5.32,37.9,37.9,0,0,1-20.37-5.44,37,37,0,0,1-13.65-14.93,45.48,45.48,0,0,1-4.86-21.06,42,42,0,0,1,8-25.34,62.18,62.18,0,0,1,21.41-18.17q29.86-15.27,75.91-15.27,27.09,0,45.83,5.2a67.42,67.42,0,0,1,31.48,18.63q9.25,9.74,12.38,24.65t3.12,41.78V317q0,11.34,1.62,15.85t5.56,4.52a13.85,13.85,0,0,0,6.83-1.74,88.43,88.43,0,0,0,8-5.21l4.63,8.1a67.85,67.85,0,0,1-25.92,13.31q-14.82,4.05-35.64,4.05-25,0-36.69-10.07a33.93,33.93,0,0,1-12.15-25.8,71.58,71.58,0,0,1-28,26.15,82.65,82.65,0,0,1-39.81,9.72q-28,0-43.86-14.81t-15.85-39.58q0-24.3,14.58-40.5t45.59-26.38q25.23-9,37.38-14.24A75.06,75.06,0,0,0,1243,207.83q8.2-7.31,8.21-17.25V148.23A49.52,49.52,0,0,0,1243.71,121.26Zm-11,109.59q-23.15,22.46-23.15,53.47,0,33.56,24.07,33.56,9.94,0,17.59-7.87V210Q1247.77,215.81,1232.72,230.85Z"/><path class="cls-2" d="M1549.33,99.86q23.14,0,33.33,14.23t10.18,33.68q0,21.28-11.92,33.9t-31.59,12.62q-20.6,0-31.48-9.15T1507,160.26q0-28.23,24.3-44.2A34.74,34.74,0,0,0,1516,119.3a45.53,45.53,0,0,0-20,16.78,44.39,44.39,0,0,0-8,25.57V303.76q0,15,4.16,23.49a23.71,23.71,0,0,0,13,11.92q8.81,3.46,23.61,3.47v9.95q-58.32-1.84-76.61-1.85-17.58,0-75.91,1.85v-9.95q9.94,0,15.74-3t8.33-10.41q2.55-7.41,2.55-20.6V158.18q0-22-6-31.82t-20.6-9.84v-10q15,1.4,29.39,1.39,49.31,0,82.4-6.48v34Q1506.51,99.86,1549.33,99.86Z"/></g></g><g class="cls-6"><path class="cls-3" d="M1900.72,362.39,1537.63-225a154.44,154.44,0,0,0-131.35-73.22,154.41,154.41,0,0,0-131,72.76L1143.85-14.56,1000.38-84A78,78,0,0,0,895-45.3l-1,2.37A78,78,0,0,0,931.5,58.88l128.21,61.61L911.12,359A79.6,79.6,0,0,0,933,466.29l.89.63a79.63,79.63,0,0,0,113.62-23.74l155-254,589.36,283.24a79.55,79.55,0,0,0,84.36-1.32h0A79.61,79.61,0,0,0,1900.72,362.39ZM1337.56-32c31-50.85,104.87-50.85,135.91,0l153.28,251.16L1285.16,53.83Z"/></g></svg>