<svg xmlns="http://www.w3.org/2000/svg" viewBox="0 0 120.8 92.14"><defs><style>.cls-1{fill:#424242;}</style></defs><title>logo</title><g id="Capa_2" data-name="Capa 2"><g id="Capa_1-2" data-name="Capa 1"><path class="cls-1" d="M119.4,77.83,76.62,8.63A18.2,18.2,0,0,0,45.7,8.57L30.23,33.42,13.32,25.24A9.19,9.19,0,0,0,.91,29.79l-.12.28a9.19,9.19,0,0,0,4.42,12l15.1,7.26L2.81,77.42A9.38,9.38,0,0,0,5.39,90.07l.1.07a9.38,9.38,0,0,0,13.39-2.79L37.14,57.42l69.44,33.37a9.39,9.39,0,0,0,9.94-.16h0A9.38,9.38,0,0,0,119.4,77.83ZM53.05,31.36a9.38,9.38,0,0,1,16,0L87.12,61,46.87,41.47Z"/></g></g></svg>